<mxfile host="Electron" modified="2024-02-24T08:22:28.633Z" agent="Mozilla/5.0 (Windows NT 10.0; Win64; x64) AppleWebKit/537.36 (KHTML, like Gecko) draw.io/23.1.5 Chrome/120.0.6099.109 Electron/28.1.0 Safari/537.36" etag="DBVAvtf6iDBui5kwRxDT" version="23.1.5" type="device">
  <diagram name="Страница — 1" id="M-Q6rJQaSrUSPMy_93jy">
    <mxGraphModel dx="864" dy="516" grid="1" gridSize="10" guides="1" tooltips="1" connect="1" arrows="1" fold="1" page="1" pageScale="1" pageWidth="827" pageHeight="1169" math="0" shadow="0">
      <root>
        <mxCell id="0" />
        <mxCell id="1" parent="0" />
        <mxCell id="ZW8N17zmlQrYqjXXHlqO-21" style="edgeStyle=orthogonalEdgeStyle;rounded=0;orthogonalLoop=1;jettySize=auto;html=1;exitX=0.5;exitY=0.5;exitDx=0;exitDy=0;exitPerimeter=0;entryX=0;entryY=0.5;entryDx=0;entryDy=0;" edge="1" parent="1" source="ZW8N17zmlQrYqjXXHlqO-1" target="ZW8N17zmlQrYqjXXHlqO-20">
          <mxGeometry relative="1" as="geometry">
            <Array as="points">
              <mxPoint x="160" y="210" />
            </Array>
          </mxGeometry>
        </mxCell>
        <mxCell id="ZW8N17zmlQrYqjXXHlqO-1" value="Client" style="shape=umlActor;verticalLabelPosition=bottom;verticalAlign=top;html=1;outlineConnect=0;" vertex="1" parent="1">
          <mxGeometry x="30" y="180" width="30" height="60" as="geometry" />
        </mxCell>
        <mxCell id="ZW8N17zmlQrYqjXXHlqO-44" style="edgeStyle=orthogonalEdgeStyle;rounded=0;orthogonalLoop=1;jettySize=auto;html=1;exitX=0.5;exitY=0.5;exitDx=0;exitDy=0;exitPerimeter=0;entryX=0;entryY=0.5;entryDx=0;entryDy=0;" edge="1" parent="1" source="ZW8N17zmlQrYqjXXHlqO-2" target="ZW8N17zmlQrYqjXXHlqO-16">
          <mxGeometry relative="1" as="geometry" />
        </mxCell>
        <mxCell id="ZW8N17zmlQrYqjXXHlqO-2" value="Application" style="shape=umlActor;verticalLabelPosition=bottom;verticalAlign=top;html=1;outlineConnect=0;" vertex="1" parent="1">
          <mxGeometry x="420" y="180" width="30" height="60" as="geometry" />
        </mxCell>
        <mxCell id="ZW8N17zmlQrYqjXXHlqO-3" value="Specialist" style="shape=umlActor;verticalLabelPosition=bottom;verticalAlign=top;html=1;outlineConnect=0;" vertex="1" parent="1">
          <mxGeometry x="376" y="370" width="30" height="60" as="geometry" />
        </mxCell>
        <mxCell id="ZW8N17zmlQrYqjXXHlqO-4" value="Возникла ошибка при доставке" style="ellipse;whiteSpace=wrap;html=1;" vertex="1" parent="1">
          <mxGeometry x="450" y="380" width="120" height="40" as="geometry" />
        </mxCell>
        <mxCell id="ZW8N17zmlQrYqjXXHlqO-6" value="" style="endArrow=classic;html=1;rounded=0;exitX=0.5;exitY=0;exitDx=0;exitDy=0;exitPerimeter=0;entryX=0;entryY=0.5;entryDx=0;entryDy=0;" edge="1" parent="1" source="ZW8N17zmlQrYqjXXHlqO-1" target="ZW8N17zmlQrYqjXXHlqO-5">
          <mxGeometry width="50" height="50" relative="1" as="geometry">
            <mxPoint x="200" y="290" as="sourcePoint" />
            <mxPoint x="250" y="240" as="targetPoint" />
          </mxGeometry>
        </mxCell>
        <mxCell id="ZW8N17zmlQrYqjXXHlqO-45" style="edgeStyle=orthogonalEdgeStyle;rounded=0;orthogonalLoop=1;jettySize=auto;html=1;exitX=0.5;exitY=0.5;exitDx=0;exitDy=0;exitPerimeter=0;entryX=1;entryY=0;entryDx=0;entryDy=0;" edge="1" parent="1" source="ZW8N17zmlQrYqjXXHlqO-8" target="ZW8N17zmlQrYqjXXHlqO-4">
          <mxGeometry relative="1" as="geometry">
            <Array as="points">
              <mxPoint x="590" y="360" />
              <mxPoint x="590" y="386" />
            </Array>
          </mxGeometry>
        </mxCell>
        <mxCell id="ZW8N17zmlQrYqjXXHlqO-8" value="Robot" style="shape=umlActor;verticalLabelPosition=bottom;verticalAlign=top;html=1;outlineConnect=0;" vertex="1" parent="1">
          <mxGeometry x="605" y="330" width="30" height="60" as="geometry" />
        </mxCell>
        <mxCell id="ZW8N17zmlQrYqjXXHlqO-9" value="Выбор врмени доставки" style="ellipse;whiteSpace=wrap;html=1;" vertex="1" parent="1">
          <mxGeometry x="60" y="27" width="120" height="40" as="geometry" />
        </mxCell>
        <mxCell id="ZW8N17zmlQrYqjXXHlqO-10" value="Extend" style="endArrow=open;endSize=12;dashed=1;html=1;rounded=0;exitX=1;exitY=1;exitDx=0;exitDy=0;entryX=0.5;entryY=0;entryDx=0;entryDy=0;" edge="1" parent="1" source="ZW8N17zmlQrYqjXXHlqO-5">
          <mxGeometry width="160" relative="1" as="geometry">
            <mxPoint x="330" y="237" as="sourcePoint" />
            <mxPoint x="230" y="117" as="targetPoint" />
          </mxGeometry>
        </mxCell>
        <mxCell id="ZW8N17zmlQrYqjXXHlqO-12" value="Изменить заказ, добавить в заказ до выезда робота" style="ellipse;whiteSpace=wrap;html=1;" vertex="1" parent="1">
          <mxGeometry x="240" y="10" width="140" height="60" as="geometry" />
        </mxCell>
        <mxCell id="ZW8N17zmlQrYqjXXHlqO-13" value="Extend" style="endArrow=open;endSize=12;dashed=1;html=1;rounded=0;exitX=0;exitY=1;exitDx=0;exitDy=0;entryX=0.5;entryY=0;entryDx=0;entryDy=0;" edge="1" parent="1" source="ZW8N17zmlQrYqjXXHlqO-12" target="ZW8N17zmlQrYqjXXHlqO-5">
          <mxGeometry width="160" relative="1" as="geometry">
            <mxPoint x="238" y="71" as="sourcePoint" />
            <mxPoint x="230" y="117" as="targetPoint" />
          </mxGeometry>
        </mxCell>
        <mxCell id="ZW8N17zmlQrYqjXXHlqO-16" value="Доставить до места заказа товары" style="ellipse;whiteSpace=wrap;html=1;" vertex="1" parent="1">
          <mxGeometry x="550" y="163" width="140" height="45" as="geometry" />
        </mxCell>
        <mxCell id="ZW8N17zmlQrYqjXXHlqO-20" value="Узнать местоположение заказа" style="ellipse;whiteSpace=wrap;html=1;" vertex="1" parent="1">
          <mxGeometry x="170" y="175" width="140" height="70" as="geometry" />
        </mxCell>
        <mxCell id="ZW8N17zmlQrYqjXXHlqO-5" value="Заказать товары" style="ellipse;whiteSpace=wrap;html=1;" vertex="1" parent="1">
          <mxGeometry x="170" y="110" width="120" height="40" as="geometry" />
        </mxCell>
        <mxCell id="ZW8N17zmlQrYqjXXHlqO-24" style="edgeStyle=orthogonalEdgeStyle;rounded=0;orthogonalLoop=1;jettySize=auto;html=1;exitX=1;exitY=0.5;exitDx=0;exitDy=0;entryX=0.5;entryY=0.5;entryDx=0;entryDy=0;entryPerimeter=0;" edge="1" parent="1" source="ZW8N17zmlQrYqjXXHlqO-20" target="ZW8N17zmlQrYqjXXHlqO-2">
          <mxGeometry relative="1" as="geometry" />
        </mxCell>
        <mxCell id="ZW8N17zmlQrYqjXXHlqO-25" value="Узнать оставшеему время" style="ellipse;whiteSpace=wrap;html=1;" vertex="1" parent="1">
          <mxGeometry x="110" y="260" width="140" height="50" as="geometry" />
        </mxCell>
        <mxCell id="ZW8N17zmlQrYqjXXHlqO-26" value="Узнать маршрут" style="ellipse;whiteSpace=wrap;html=1;" vertex="1" parent="1">
          <mxGeometry x="270" y="260" width="140" height="50" as="geometry" />
        </mxCell>
        <mxCell id="ZW8N17zmlQrYqjXXHlqO-27" value="Extend" style="endArrow=open;endSize=12;dashed=1;html=1;rounded=0;exitX=1;exitY=1;exitDx=0;exitDy=0;entryX=0.5;entryY=0;entryDx=0;entryDy=0;" edge="1" parent="1" source="ZW8N17zmlQrYqjXXHlqO-9" target="ZW8N17zmlQrYqjXXHlqO-5">
          <mxGeometry width="160" relative="1" as="geometry">
            <mxPoint x="184" y="71" as="sourcePoint" />
            <mxPoint x="153" y="120" as="targetPoint" />
          </mxGeometry>
        </mxCell>
        <mxCell id="ZW8N17zmlQrYqjXXHlqO-28" value="Extend" style="endArrow=open;endSize=12;dashed=1;html=1;rounded=0;exitX=0.5;exitY=0;exitDx=0;exitDy=0;entryX=1;entryY=1;entryDx=0;entryDy=0;" edge="1" parent="1" source="ZW8N17zmlQrYqjXXHlqO-26" target="ZW8N17zmlQrYqjXXHlqO-20">
          <mxGeometry width="160" relative="1" as="geometry">
            <mxPoint x="281" y="248" as="sourcePoint" />
            <mxPoint x="250" y="297" as="targetPoint" />
          </mxGeometry>
        </mxCell>
        <mxCell id="ZW8N17zmlQrYqjXXHlqO-29" value="Extend" style="endArrow=open;endSize=12;dashed=1;html=1;rounded=0;exitX=0.5;exitY=0;exitDx=0;exitDy=0;entryX=0;entryY=1;entryDx=0;entryDy=0;" edge="1" parent="1" source="ZW8N17zmlQrYqjXXHlqO-25" target="ZW8N17zmlQrYqjXXHlqO-20">
          <mxGeometry width="160" relative="1" as="geometry">
            <mxPoint x="259" y="270" as="sourcePoint" />
            <mxPoint x="208" y="245" as="targetPoint" />
          </mxGeometry>
        </mxCell>
        <mxCell id="ZW8N17zmlQrYqjXXHlqO-30" value="Оплатить онлайн" style="ellipse;whiteSpace=wrap;html=1;" vertex="1" parent="1">
          <mxGeometry x="365" y="67" width="140" height="40" as="geometry" />
        </mxCell>
        <mxCell id="ZW8N17zmlQrYqjXXHlqO-39" style="edgeStyle=orthogonalEdgeStyle;rounded=0;orthogonalLoop=1;jettySize=auto;html=1;exitX=0.5;exitY=1;exitDx=0;exitDy=0;" edge="1" parent="1" source="ZW8N17zmlQrYqjXXHlqO-32" target="ZW8N17zmlQrYqjXXHlqO-8">
          <mxGeometry relative="1" as="geometry" />
        </mxCell>
        <mxCell id="ZW8N17zmlQrYqjXXHlqO-32" value="Открыть контейнер с заказом" style="ellipse;whiteSpace=wrap;html=1;" vertex="1" parent="1">
          <mxGeometry x="550" y="260" width="140" height="45" as="geometry" />
        </mxCell>
        <mxCell id="ZW8N17zmlQrYqjXXHlqO-34" value="Include" style="endArrow=open;endSize=12;dashed=1;html=1;rounded=0;exitX=1;exitY=0;exitDx=0;exitDy=0;entryX=0;entryY=0.5;entryDx=0;entryDy=0;" edge="1" parent="1" source="ZW8N17zmlQrYqjXXHlqO-5" target="ZW8N17zmlQrYqjXXHlqO-30">
          <mxGeometry width="160" relative="1" as="geometry">
            <mxPoint x="370" y="333" as="sourcePoint" />
            <mxPoint x="530" y="333" as="targetPoint" />
          </mxGeometry>
        </mxCell>
        <mxCell id="ZW8N17zmlQrYqjXXHlqO-38" value="Include" style="endArrow=open;endSize=12;dashed=1;html=1;rounded=0;exitX=0.5;exitY=1;exitDx=0;exitDy=0;entryX=0.5;entryY=0;entryDx=0;entryDy=0;" edge="1" parent="1" source="ZW8N17zmlQrYqjXXHlqO-16" target="ZW8N17zmlQrYqjXXHlqO-32">
          <mxGeometry width="160" relative="1" as="geometry">
            <mxPoint x="370" y="332" as="sourcePoint" />
            <mxPoint x="530" y="332" as="targetPoint" />
          </mxGeometry>
        </mxCell>
        <mxCell id="ZW8N17zmlQrYqjXXHlqO-40" value="Ввести пин-код&amp;nbsp;" style="ellipse;whiteSpace=wrap;html=1;" vertex="1" parent="1">
          <mxGeometry x="420" y="320" width="110" height="30" as="geometry" />
        </mxCell>
        <mxCell id="ZW8N17zmlQrYqjXXHlqO-41" value="Include" style="endArrow=open;endSize=12;dashed=1;html=1;rounded=0;exitX=0;exitY=0.5;exitDx=0;exitDy=0;entryX=1;entryY=0;entryDx=0;entryDy=0;" edge="1" parent="1" source="ZW8N17zmlQrYqjXXHlqO-32" target="ZW8N17zmlQrYqjXXHlqO-40">
          <mxGeometry width="160" relative="1" as="geometry">
            <mxPoint x="512" y="218" as="sourcePoint" />
            <mxPoint x="512" y="270" as="targetPoint" />
          </mxGeometry>
        </mxCell>
        <mxCell id="ZW8N17zmlQrYqjXXHlqO-42" style="edgeStyle=orthogonalEdgeStyle;rounded=0;orthogonalLoop=1;jettySize=auto;html=1;exitX=0;exitY=0.5;exitDx=0;exitDy=0;entryX=0;entryY=1;entryDx=0;entryDy=0;entryPerimeter=0;" edge="1" parent="1" source="ZW8N17zmlQrYqjXXHlqO-40" target="ZW8N17zmlQrYqjXXHlqO-1">
          <mxGeometry relative="1" as="geometry" />
        </mxCell>
        <mxCell id="ZW8N17zmlQrYqjXXHlqO-46" style="edgeStyle=orthogonalEdgeStyle;rounded=0;orthogonalLoop=1;jettySize=auto;html=1;exitX=0;exitY=0.5;exitDx=0;exitDy=0;entryX=0.5;entryY=0.5;entryDx=0;entryDy=0;entryPerimeter=0;" edge="1" parent="1" source="ZW8N17zmlQrYqjXXHlqO-4" target="ZW8N17zmlQrYqjXXHlqO-3">
          <mxGeometry relative="1" as="geometry" />
        </mxCell>
        <mxCell id="ZW8N17zmlQrYqjXXHlqO-47" value="Bank" style="shape=umlActor;verticalLabelPosition=bottom;verticalAlign=top;html=1;" vertex="1" parent="1">
          <mxGeometry x="522" y="57" width="30" height="60" as="geometry" />
        </mxCell>
        <mxCell id="ZW8N17zmlQrYqjXXHlqO-48" style="edgeStyle=orthogonalEdgeStyle;rounded=0;orthogonalLoop=1;jettySize=auto;html=1;exitX=1;exitY=0.5;exitDx=0;exitDy=0;entryX=0.5;entryY=0.5;entryDx=0;entryDy=0;entryPerimeter=0;" edge="1" parent="1" source="ZW8N17zmlQrYqjXXHlqO-30" target="ZW8N17zmlQrYqjXXHlqO-47">
          <mxGeometry relative="1" as="geometry" />
        </mxCell>
        <mxCell id="ZW8N17zmlQrYqjXXHlqO-49" style="edgeStyle=orthogonalEdgeStyle;rounded=0;orthogonalLoop=1;jettySize=auto;html=1;exitX=0;exitY=1;exitDx=0;exitDy=0;exitPerimeter=0;entryX=0.5;entryY=0;entryDx=0;entryDy=0;entryPerimeter=0;" edge="1" parent="1" source="ZW8N17zmlQrYqjXXHlqO-47" target="ZW8N17zmlQrYqjXXHlqO-2">
          <mxGeometry relative="1" as="geometry">
            <Array as="points">
              <mxPoint x="522" y="120" />
              <mxPoint x="435" y="120" />
            </Array>
          </mxGeometry>
        </mxCell>
      </root>
    </mxGraphModel>
  </diagram>
</mxfile>
